<mxfile host="app.diagrams.net" modified="2021-04-09T13:39:32.540Z" agent="5.0 (Macintosh; Intel Mac OS X 10_15_7) AppleWebKit/537.36 (KHTML, like Gecko) Chrome/89.0.4389.114 Safari/537.36" etag="qOecZEKllZulnGKrYOHR" version="14.5.9" type="github">
  <diagram name="Page-1" id="97916047-d0de-89f5-080d-49f4d83e522f">
    <mxGraphModel dx="2037" dy="1101" grid="1" gridSize="10" guides="1" tooltips="1" connect="1" arrows="1" fold="1" page="1" pageScale="1.5" pageWidth="1169" pageHeight="827" background="#ffffff" math="0" shadow="0">
      <root>
        <mxCell id="0" />
        <mxCell id="1" parent="0" />
        <mxCell id="2" value="Home" style="rounded=1;strokeColor=none;shadow=1;gradientColor=none;fontStyle=1;fontColor=#FFFFFF;fontSize=14;fillColor=#3D91FF;align=center;" parent="1" vertex="1">
          <mxGeometry x="746" y="170" width="200" height="60" as="geometry" />
        </mxCell>
        <mxCell id="L7AkWlDN6w4m5jaaapIP-79" style="edgeStyle=orthogonalEdgeStyle;rounded=0;orthogonalLoop=1;jettySize=auto;html=1;exitX=0.5;exitY=1;exitDx=0;exitDy=0;entryX=1;entryY=0.5;entryDx=0;entryDy=0;strokeWidth=4;align=center;" edge="1" parent="1" source="4" target="L7AkWlDN6w4m5jaaapIP-76">
          <mxGeometry relative="1" as="geometry" />
        </mxCell>
        <mxCell id="L7AkWlDN6w4m5jaaapIP-80" style="edgeStyle=orthogonalEdgeStyle;rounded=0;orthogonalLoop=1;jettySize=auto;html=1;exitX=0.5;exitY=1;exitDx=0;exitDy=0;entryX=1;entryY=0.5;entryDx=0;entryDy=0;strokeWidth=4;align=center;" edge="1" parent="1" source="4" target="L7AkWlDN6w4m5jaaapIP-73">
          <mxGeometry relative="1" as="geometry" />
        </mxCell>
        <mxCell id="L7AkWlDN6w4m5jaaapIP-81" style="edgeStyle=orthogonalEdgeStyle;rounded=0;orthogonalLoop=1;jettySize=auto;html=1;exitX=0.5;exitY=1;exitDx=0;exitDy=0;entryX=1;entryY=0.5;entryDx=0;entryDy=0;strokeWidth=4;align=center;" edge="1" parent="1" source="4" target="L7AkWlDN6w4m5jaaapIP-67">
          <mxGeometry relative="1" as="geometry" />
        </mxCell>
        <mxCell id="L7AkWlDN6w4m5jaaapIP-82" style="edgeStyle=orthogonalEdgeStyle;rounded=0;orthogonalLoop=1;jettySize=auto;html=1;exitX=0.5;exitY=1;exitDx=0;exitDy=0;entryX=1;entryY=0.5;entryDx=0;entryDy=0;strokeWidth=4;align=center;" edge="1" parent="1" source="4" target="L7AkWlDN6w4m5jaaapIP-72">
          <mxGeometry relative="1" as="geometry" />
        </mxCell>
        <mxCell id="L7AkWlDN6w4m5jaaapIP-83" style="edgeStyle=orthogonalEdgeStyle;rounded=0;orthogonalLoop=1;jettySize=auto;html=1;exitX=0.5;exitY=1;exitDx=0;exitDy=0;entryX=1;entryY=0.5;entryDx=0;entryDy=0;strokeWidth=4;align=center;" edge="1" parent="1" source="4" target="L7AkWlDN6w4m5jaaapIP-78">
          <mxGeometry relative="1" as="geometry" />
        </mxCell>
        <mxCell id="L7AkWlDN6w4m5jaaapIP-84" style="edgeStyle=orthogonalEdgeStyle;rounded=0;orthogonalLoop=1;jettySize=auto;html=1;exitX=0.5;exitY=1;exitDx=0;exitDy=0;entryX=1;entryY=0.5;entryDx=0;entryDy=0;strokeWidth=4;align=center;" edge="1" parent="1" source="4" target="L7AkWlDN6w4m5jaaapIP-77">
          <mxGeometry relative="1" as="geometry" />
        </mxCell>
        <mxCell id="L7AkWlDN6w4m5jaaapIP-85" style="edgeStyle=orthogonalEdgeStyle;rounded=0;orthogonalLoop=1;jettySize=auto;html=1;exitX=0.5;exitY=1;exitDx=0;exitDy=0;entryX=1;entryY=0.5;entryDx=0;entryDy=0;strokeWidth=4;align=center;" edge="1" parent="1" source="4" target="L7AkWlDN6w4m5jaaapIP-74">
          <mxGeometry relative="1" as="geometry" />
        </mxCell>
        <mxCell id="L7AkWlDN6w4m5jaaapIP-86" style="edgeStyle=orthogonalEdgeStyle;rounded=0;orthogonalLoop=1;jettySize=auto;html=1;exitX=0.5;exitY=1;exitDx=0;exitDy=0;entryX=1;entryY=0.5;entryDx=0;entryDy=0;strokeWidth=4;align=center;" edge="1" parent="1" source="4" target="L7AkWlDN6w4m5jaaapIP-75">
          <mxGeometry relative="1" as="geometry" />
        </mxCell>
        <mxCell id="L7AkWlDN6w4m5jaaapIP-94" value="Resume" style="rounded=1;strokeColor=none;shadow=1;gradientColor=none;fontStyle=1;fontSize=14;fillColor=#58E86B;align=center;" vertex="1" parent="1">
          <mxGeometry x="1490" y="470" width="158" height="60" as="geometry" />
        </mxCell>
        <mxCell id="L7AkWlDN6w4m5jaaapIP-95" style="edgeStyle=orthogonalEdgeStyle;rounded=0;orthogonalLoop=1;jettySize=auto;html=1;exitX=0.5;exitY=1;exitDx=0;exitDy=0;strokeWidth=4;align=center;" edge="1" parent="1" source="6" target="L7AkWlDN6w4m5jaaapIP-94">
          <mxGeometry relative="1" as="geometry" />
        </mxCell>
        <mxCell id="L7AkWlDN6w4m5jaaapIP-106" style="edgeStyle=orthogonalEdgeStyle;rounded=0;orthogonalLoop=1;jettySize=auto;html=1;exitX=0.5;exitY=1;exitDx=0;exitDy=0;entryX=0;entryY=0.5;entryDx=0;entryDy=0;strokeWidth=4;align=center;" edge="1" parent="1" source="L7AkWlDN6w4m5jaaapIP-56" target="L7AkWlDN6w4m5jaaapIP-99">
          <mxGeometry relative="1" as="geometry" />
        </mxCell>
        <mxCell id="L7AkWlDN6w4m5jaaapIP-107" style="edgeStyle=orthogonalEdgeStyle;rounded=0;orthogonalLoop=1;jettySize=auto;html=1;exitX=0.5;exitY=1;exitDx=0;exitDy=0;entryX=0;entryY=0.5;entryDx=0;entryDy=0;strokeWidth=4;align=center;" edge="1" parent="1" source="L7AkWlDN6w4m5jaaapIP-56" target="L7AkWlDN6w4m5jaaapIP-98">
          <mxGeometry relative="1" as="geometry" />
        </mxCell>
        <mxCell id="L7AkWlDN6w4m5jaaapIP-108" style="edgeStyle=orthogonalEdgeStyle;rounded=0;orthogonalLoop=1;jettySize=auto;html=1;exitX=0.5;exitY=1;exitDx=0;exitDy=0;entryX=0;entryY=0.5;entryDx=0;entryDy=0;strokeWidth=4;align=center;" edge="1" parent="1" source="L7AkWlDN6w4m5jaaapIP-56" target="L7AkWlDN6w4m5jaaapIP-96">
          <mxGeometry relative="1" as="geometry" />
        </mxCell>
        <mxCell id="L7AkWlDN6w4m5jaaapIP-109" style="edgeStyle=orthogonalEdgeStyle;rounded=0;orthogonalLoop=1;jettySize=auto;html=1;exitX=0.5;exitY=1;exitDx=0;exitDy=0;entryX=0;entryY=0.5;entryDx=0;entryDy=0;strokeWidth=4;align=center;" edge="1" parent="1" source="L7AkWlDN6w4m5jaaapIP-56" target="L7AkWlDN6w4m5jaaapIP-97">
          <mxGeometry relative="1" as="geometry" />
        </mxCell>
        <mxCell id="L7AkWlDN6w4m5jaaapIP-110" style="edgeStyle=orthogonalEdgeStyle;rounded=0;orthogonalLoop=1;jettySize=auto;html=1;exitX=0.5;exitY=1;exitDx=0;exitDy=0;entryX=0;entryY=0.5;entryDx=0;entryDy=0;strokeWidth=4;align=center;" edge="1" parent="1" source="L7AkWlDN6w4m5jaaapIP-56" target="L7AkWlDN6w4m5jaaapIP-100">
          <mxGeometry relative="1" as="geometry" />
        </mxCell>
        <mxCell id="L7AkWlDN6w4m5jaaapIP-119" style="edgeStyle=orthogonalEdgeStyle;rounded=0;orthogonalLoop=1;jettySize=auto;html=1;exitX=0.5;exitY=1;exitDx=0;exitDy=0;entryX=1;entryY=0.5;entryDx=0;entryDy=0;strokeWidth=4;align=center;" edge="1" parent="1" source="L7AkWlDN6w4m5jaaapIP-57" target="L7AkWlDN6w4m5jaaapIP-117">
          <mxGeometry relative="1" as="geometry" />
        </mxCell>
        <mxCell id="L7AkWlDN6w4m5jaaapIP-120" style="edgeStyle=orthogonalEdgeStyle;rounded=0;orthogonalLoop=1;jettySize=auto;html=1;exitX=0.5;exitY=1;exitDx=0;exitDy=0;entryX=1;entryY=0.5;entryDx=0;entryDy=0;strokeWidth=4;align=center;" edge="1" parent="1" source="L7AkWlDN6w4m5jaaapIP-57" target="L7AkWlDN6w4m5jaaapIP-116">
          <mxGeometry relative="1" as="geometry" />
        </mxCell>
        <mxCell id="L7AkWlDN6w4m5jaaapIP-121" style="edgeStyle=orthogonalEdgeStyle;rounded=0;orthogonalLoop=1;jettySize=auto;html=1;exitX=0.5;exitY=1;exitDx=0;exitDy=0;entryX=1;entryY=0.5;entryDx=0;entryDy=0;strokeWidth=4;align=center;" edge="1" parent="1" source="L7AkWlDN6w4m5jaaapIP-57" target="L7AkWlDN6w4m5jaaapIP-114">
          <mxGeometry relative="1" as="geometry" />
        </mxCell>
        <mxCell id="L7AkWlDN6w4m5jaaapIP-61" value="" style="edgeStyle=elbowEdgeStyle;elbow=vertical;strokeWidth=4;endArrow=block;endFill=1;fontStyle=1;strokeColor=#23445D;exitX=0.5;exitY=1;exitDx=0;exitDy=0;entryX=0.5;entryY=0;entryDx=0;entryDy=0;align=center;" edge="1" parent="1" source="2" target="4">
          <mxGeometry x="81" y="125.5" width="100" height="100" as="geometry">
            <mxPoint x="831" y="230" as="sourcePoint" />
            <mxPoint x="224" y="430" as="targetPoint" />
            <Array as="points">
              <mxPoint x="551" y="285" />
              <mxPoint x="639" y="280" />
              <mxPoint x="659" y="280" />
            </Array>
          </mxGeometry>
        </mxCell>
        <mxCell id="L7AkWlDN6w4m5jaaapIP-60" value="" style="edgeStyle=elbowEdgeStyle;elbow=vertical;strokeWidth=4;endArrow=block;endFill=1;fontStyle=1;strokeColor=#23445D;exitX=0.5;exitY=1;exitDx=0;exitDy=0;entryX=0.5;entryY=0;entryDx=0;entryDy=0;align=center;" edge="1" parent="1" source="2" target="6">
          <mxGeometry x="-268" y="130" width="100" height="100" as="geometry">
            <mxPoint x="844" y="230" as="sourcePoint" />
            <mxPoint x="982" y="420" as="targetPoint" />
            <Array as="points">
              <mxPoint x="852" y="284.5" />
              <mxPoint x="482" y="284.5" />
              <mxPoint x="482" y="394.5" />
              <mxPoint x="772" y="260" />
            </Array>
          </mxGeometry>
        </mxCell>
        <mxCell id="33" value="" style="edgeStyle=elbowEdgeStyle;elbow=vertical;strokeWidth=4;endArrow=block;endFill=1;fontStyle=1;strokeColor=#23445D;exitX=0.5;exitY=1;exitDx=0;exitDy=0;align=center;" parent="1" source="2" target="7" edge="1">
          <mxGeometry x="-266" y="130" width="100" height="100" as="geometry">
            <mxPoint x="844" y="234.5" as="sourcePoint" />
            <mxPoint x="-166" y="130" as="targetPoint" />
            <Array as="points">
              <mxPoint x="854" y="284.5" />
              <mxPoint x="484" y="284.5" />
              <mxPoint x="484" y="394.5" />
              <mxPoint x="774" y="260" />
            </Array>
          </mxGeometry>
        </mxCell>
        <mxCell id="L7AkWlDN6w4m5jaaapIP-63" value="" style="edgeStyle=elbowEdgeStyle;elbow=vertical;strokeWidth=4;endArrow=block;endFill=1;fontStyle=1;strokeColor=#23445D;entryX=0.5;entryY=0;entryDx=0;entryDy=0;align=center;" edge="1" parent="1" source="2" target="L7AkWlDN6w4m5jaaapIP-56">
          <mxGeometry x="89" y="135.5" width="100" height="100" as="geometry">
            <mxPoint x="844" y="230" as="sourcePoint" />
            <mxPoint x="1442" y="420" as="targetPoint" />
            <Array as="points">
              <mxPoint x="1142" y="285" />
              <mxPoint x="647" y="290" />
              <mxPoint x="667" y="290" />
            </Array>
          </mxGeometry>
        </mxCell>
        <mxCell id="L7AkWlDN6w4m5jaaapIP-62" value="" style="edgeStyle=elbowEdgeStyle;elbow=vertical;strokeWidth=4;endArrow=block;endFill=1;fontStyle=1;strokeColor=#23445D;align=center;" edge="1" parent="1" target="L7AkWlDN6w4m5jaaapIP-57">
          <mxGeometry x="91" y="135.5" width="100" height="100" as="geometry">
            <mxPoint x="846" y="230" as="sourcePoint" />
            <mxPoint x="273" y="430" as="targetPoint" />
            <Array as="points">
              <mxPoint x="1144" y="285" />
              <mxPoint x="649" y="290" />
              <mxPoint x="669" y="290" />
            </Array>
          </mxGeometry>
        </mxCell>
        <mxCell id="30" value="" style="edgeStyle=elbowEdgeStyle;elbow=vertical;strokeWidth=4;endArrow=block;endFill=1;fontStyle=1;strokeColor=#23445D;entryX=0.5;entryY=0;entryDx=0;entryDy=0;align=center;" parent="1" target="5" edge="1">
          <mxGeometry x="96" y="130" width="100" height="100" as="geometry">
            <mxPoint x="846" y="234.5" as="sourcePoint" />
            <mxPoint x="196" y="130" as="targetPoint" />
            <Array as="points">
              <mxPoint x="654" y="284.5" />
              <mxPoint x="674" y="284.5" />
            </Array>
          </mxGeometry>
        </mxCell>
        <mxCell id="5" value="Skills" style="rounded=1;strokeColor=#b85450;shadow=1;fontStyle=1;fontSize=14;fillColor=#F86868;fontColor=#FFFFFF;align=center;" parent="1" vertex="1">
          <mxGeometry x="104" y="370" width="150" height="60" as="geometry" />
        </mxCell>
        <mxCell id="L7AkWlDN6w4m5jaaapIP-132" style="edgeStyle=orthogonalEdgeStyle;rounded=0;orthogonalLoop=1;jettySize=auto;html=1;exitX=0.5;exitY=1;exitDx=0;exitDy=0;entryX=0;entryY=0.5;entryDx=0;entryDy=0;fontColor=#000000;strokeWidth=4;align=center;" edge="1" parent="1" source="7" target="L7AkWlDN6w4m5jaaapIP-127">
          <mxGeometry relative="1" as="geometry" />
        </mxCell>
        <mxCell id="L7AkWlDN6w4m5jaaapIP-133" style="edgeStyle=orthogonalEdgeStyle;rounded=0;orthogonalLoop=1;jettySize=auto;html=1;exitX=0.5;exitY=1;exitDx=0;exitDy=0;entryX=0;entryY=0.5;entryDx=0;entryDy=0;fontColor=#000000;strokeWidth=4;align=center;" edge="1" parent="1" source="7" target="L7AkWlDN6w4m5jaaapIP-126">
          <mxGeometry relative="1" as="geometry" />
        </mxCell>
        <mxCell id="L7AkWlDN6w4m5jaaapIP-134" style="edgeStyle=orthogonalEdgeStyle;rounded=0;orthogonalLoop=1;jettySize=auto;html=1;exitX=0.5;exitY=1;exitDx=0;exitDy=0;entryX=0;entryY=0.5;entryDx=0;entryDy=0;fontColor=#000000;strokeWidth=4;align=center;" edge="1" parent="1" source="7" target="L7AkWlDN6w4m5jaaapIP-124">
          <mxGeometry relative="1" as="geometry" />
        </mxCell>
        <mxCell id="L7AkWlDN6w4m5jaaapIP-135" style="edgeStyle=orthogonalEdgeStyle;rounded=0;orthogonalLoop=1;jettySize=auto;html=1;exitX=0.5;exitY=1;exitDx=0;exitDy=0;entryX=0;entryY=0.5;entryDx=0;entryDy=0;fontColor=#000000;strokeWidth=4;align=center;" edge="1" parent="1" source="7" target="L7AkWlDN6w4m5jaaapIP-125">
          <mxGeometry relative="1" as="geometry" />
        </mxCell>
        <mxCell id="7" value="About Me" style="rounded=1;strokeColor=#b85450;shadow=1;fontStyle=1;fontSize=14;fillColor=#F86868;fontColor=#FFFFFF;align=center;" parent="1" vertex="1">
          <mxGeometry x="866" y="370" width="160" height="60" as="geometry" />
        </mxCell>
        <mxCell id="L7AkWlDN6w4m5jaaapIP-56" value="Blog" style="rounded=1;strokeColor=#b85450;shadow=1;fontStyle=1;fontSize=14;fillColor=#F86868;fontColor=#FFFFFF;align=center;" vertex="1" parent="1">
          <mxGeometry x="1154" y="370" width="160" height="60" as="geometry" />
        </mxCell>
        <mxCell id="L7AkWlDN6w4m5jaaapIP-140" style="edgeStyle=orthogonalEdgeStyle;rounded=0;orthogonalLoop=1;jettySize=auto;html=1;exitX=0.5;exitY=1;exitDx=0;exitDy=0;entryX=1;entryY=0.5;entryDx=0;entryDy=0;fontColor=#000000;strokeWidth=4;align=center;" edge="1" parent="1" source="L7AkWlDN6w4m5jaaapIP-57" target="L7AkWlDN6w4m5jaaapIP-115">
          <mxGeometry relative="1" as="geometry" />
        </mxCell>
        <mxCell id="L7AkWlDN6w4m5jaaapIP-141" style="edgeStyle=orthogonalEdgeStyle;rounded=0;orthogonalLoop=1;jettySize=auto;html=1;exitX=0.5;exitY=1;exitDx=0;exitDy=0;entryX=1;entryY=0.5;entryDx=0;entryDy=0;fontColor=#000000;strokeWidth=4;align=center;" edge="1" parent="1" source="L7AkWlDN6w4m5jaaapIP-57" target="L7AkWlDN6w4m5jaaapIP-129">
          <mxGeometry relative="1" as="geometry" />
        </mxCell>
        <mxCell id="L7AkWlDN6w4m5jaaapIP-57" value="Contact" style="rounded=1;strokeColor=#b85450;shadow=1;fontStyle=1;fontSize=14;fillColor=#F86868;fontColor=#FFFFFF;align=center;" vertex="1" parent="1">
          <mxGeometry x="664" y="370" width="160" height="60" as="geometry" />
        </mxCell>
        <mxCell id="6" value="Experience" style="rounded=1;strokeColor=#b85450;shadow=1;fontStyle=1;fontSize=14;fillColor=#F86868;fontColor=#FFFFFF;align=center;" parent="1" vertex="1">
          <mxGeometry x="1490" y="370" width="160" height="60" as="geometry" />
        </mxCell>
        <mxCell id="4" value="Portfolio" style="rounded=1;strokeColor=#b85450;shadow=1;fontStyle=1;fontSize=14;fillColor=#F86868;fontColor=#FFFFFF;align=center;" parent="1" vertex="1">
          <mxGeometry x="364" y="370" width="158" height="60" as="geometry" />
        </mxCell>
        <mxCell id="L7AkWlDN6w4m5jaaapIP-67" value="Site 3" style="rounded=1;strokeColor=#82b366;shadow=1;fontStyle=1;fontSize=14;fillColor=#58E86B;align=center;" vertex="1" parent="1">
          <mxGeometry x="214" y="630" width="158" height="60" as="geometry" />
        </mxCell>
        <mxCell id="L7AkWlDN6w4m5jaaapIP-72" value="Site 4" style="rounded=1;strokeColor=#82b366;shadow=1;fontStyle=1;fontSize=14;fillColor=#58E86B;align=center;" vertex="1" parent="1">
          <mxGeometry x="214" y="710" width="160" height="60" as="geometry" />
        </mxCell>
        <mxCell id="L7AkWlDN6w4m5jaaapIP-73" value="Site 2" style="rounded=1;strokeColor=#82b366;shadow=1;fontStyle=1;fontSize=14;fillColor=#58E86B;align=center;" vertex="1" parent="1">
          <mxGeometry x="214" y="550" width="158" height="60" as="geometry" />
        </mxCell>
        <mxCell id="L7AkWlDN6w4m5jaaapIP-74" value="Site 7" style="rounded=1;strokeColor=#82b366;shadow=1;fontStyle=1;fontSize=14;fillColor=#58E86B;align=center;" vertex="1" parent="1">
          <mxGeometry x="214" y="950" width="158" height="60" as="geometry" />
        </mxCell>
        <mxCell id="L7AkWlDN6w4m5jaaapIP-75" value="Site 8" style="rounded=1;strokeColor=#82b366;shadow=1;fontStyle=1;fontSize=14;fillColor=#58E86B;align=center;" vertex="1" parent="1">
          <mxGeometry x="214" y="1030" width="158" height="60" as="geometry" />
        </mxCell>
        <mxCell id="L7AkWlDN6w4m5jaaapIP-76" value="Site 1" style="rounded=1;strokeColor=#82b366;shadow=1;fontStyle=1;fontSize=14;fillColor=#58E86B;align=center;" vertex="1" parent="1">
          <mxGeometry x="215" y="470" width="158" height="60" as="geometry" />
        </mxCell>
        <mxCell id="L7AkWlDN6w4m5jaaapIP-77" value="Site 6" style="rounded=1;strokeColor=#82b366;shadow=1;fontStyle=1;fontSize=14;fillColor=#58E86B;align=center;" vertex="1" parent="1">
          <mxGeometry x="214" y="870" width="158" height="60" as="geometry" />
        </mxCell>
        <mxCell id="L7AkWlDN6w4m5jaaapIP-78" value="Site 5" style="rounded=1;strokeColor=#82b366;shadow=1;fontStyle=1;fontSize=14;fillColor=#58E86B;align=center;" vertex="1" parent="1">
          <mxGeometry x="214" y="790" width="158" height="60" as="geometry" />
        </mxCell>
        <mxCell id="L7AkWlDN6w4m5jaaapIP-124" value="SoundCloud 1" style="rounded=1;strokeColor=none;shadow=1;gradientColor=none;fontStyle=1;fontSize=14;fillColor=#58E86B;align=center;" vertex="1" parent="1">
          <mxGeometry x="1004" y="630" width="158" height="60" as="geometry" />
        </mxCell>
        <mxCell id="L7AkWlDN6w4m5jaaapIP-125" value="SoundCloud 2" style="rounded=1;strokeColor=none;shadow=1;gradientColor=none;fontStyle=1;fontSize=14;fillColor=#58E86B;align=center;" vertex="1" parent="1">
          <mxGeometry x="1004" y="710" width="160" height="60" as="geometry" />
        </mxCell>
        <mxCell id="L7AkWlDN6w4m5jaaapIP-126" value="YouTube Vid 2" style="rounded=1;strokeColor=none;shadow=1;gradientColor=none;fontStyle=1;fontSize=14;fillColor=#58E86B;align=center;" vertex="1" parent="1">
          <mxGeometry x="1004" y="550" width="158" height="60" as="geometry" />
        </mxCell>
        <mxCell id="L7AkWlDN6w4m5jaaapIP-127" value="YouTube Vid 1" style="rounded=1;strokeColor=none;shadow=1;gradientColor=none;fontStyle=1;fontSize=14;fillColor=#58E86B;align=center;" vertex="1" parent="1">
          <mxGeometry x="1006" y="470" width="158" height="60" as="geometry" />
        </mxCell>
        <mxCell id="L7AkWlDN6w4m5jaaapIP-96" value="Blog 3" style="rounded=1;strokeColor=none;shadow=1;gradientColor=none;fontStyle=1;fontSize=14;fillColor=#58E86B;align=center;" vertex="1" parent="1">
          <mxGeometry x="1284" y="630" width="158" height="60" as="geometry" />
        </mxCell>
        <mxCell id="L7AkWlDN6w4m5jaaapIP-97" value="Blog 4" style="rounded=1;strokeColor=none;shadow=1;gradientColor=none;fontStyle=1;fontSize=14;fillColor=#58E86B;align=center;" vertex="1" parent="1">
          <mxGeometry x="1284" y="710" width="160" height="60" as="geometry" />
        </mxCell>
        <mxCell id="L7AkWlDN6w4m5jaaapIP-98" value="Blog 2" style="rounded=1;strokeColor=none;shadow=1;gradientColor=none;fontStyle=1;fontSize=14;fillColor=#58E86B;align=center;" vertex="1" parent="1">
          <mxGeometry x="1284" y="550" width="158" height="60" as="geometry" />
        </mxCell>
        <mxCell id="L7AkWlDN6w4m5jaaapIP-99" value="Blog 1" style="rounded=1;strokeColor=none;shadow=1;gradientColor=none;fontStyle=1;fontSize=14;fillColor=#58E86B;align=center;" vertex="1" parent="1">
          <mxGeometry x="1286" y="470" width="158" height="60" as="geometry" />
        </mxCell>
        <mxCell id="L7AkWlDN6w4m5jaaapIP-100" value="Blog 5" style="rounded=1;strokeColor=none;shadow=1;gradientColor=none;fontStyle=1;fontSize=14;fillColor=#58E86B;align=center;" vertex="1" parent="1">
          <mxGeometry x="1284" y="790" width="158" height="60" as="geometry" />
        </mxCell>
        <mxCell id="L7AkWlDN6w4m5jaaapIP-114" value="Linked In" style="rounded=1;strokeColor=none;shadow=1;gradientColor=none;fontStyle=1;fontSize=14;fillColor=#58E86B;align=center;" vertex="1" parent="1">
          <mxGeometry x="534" y="630" width="158" height="60" as="geometry" />
        </mxCell>
        <mxCell id="L7AkWlDN6w4m5jaaapIP-115" value="Facebook" style="rounded=1;strokeColor=none;shadow=1;gradientColor=none;fontStyle=1;fontSize=14;fillColor=#58E86B;align=center;" vertex="1" parent="1">
          <mxGeometry x="534" y="710" width="160" height="60" as="geometry" />
        </mxCell>
        <mxCell id="L7AkWlDN6w4m5jaaapIP-116" value="Github" style="rounded=1;strokeColor=none;shadow=1;gradientColor=none;fontStyle=1;fontSize=14;fillColor=#58E86B;align=center;" vertex="1" parent="1">
          <mxGeometry x="534" y="550" width="158" height="60" as="geometry" />
        </mxCell>
        <mxCell id="L7AkWlDN6w4m5jaaapIP-117" value="Email" style="rounded=1;strokeColor=none;shadow=1;gradientColor=none;fontStyle=1;fontSize=14;fillColor=#58E86B;align=center;" vertex="1" parent="1">
          <mxGeometry x="536" y="470" width="158" height="60" as="geometry" />
        </mxCell>
        <mxCell id="L7AkWlDN6w4m5jaaapIP-129" value="Twitter" style="rounded=1;strokeColor=none;shadow=1;gradientColor=none;fontStyle=1;fontSize=14;fillColor=#58E86B;align=center;" vertex="1" parent="1">
          <mxGeometry x="534" y="790" width="158" height="60" as="geometry" />
        </mxCell>
      </root>
    </mxGraphModel>
  </diagram>
</mxfile>
